%
M48
M72
T01C0.0320
T02C0.0394
T03C0.0400
%
T01
X3680Y3180
X2690Y4180
X4670Y4180
T02
X5082Y13782
X6082Y13782
X7082Y13782
X8082Y13782
X9082Y13782
X10082Y13782
X11082Y13782
X12082Y13782
X13082Y13782
X14082Y13782
X15082Y13782
X16082Y13782
X17082Y13782
X18082Y13782
X19082Y13782
X4082Y13782
T03
X10180Y4180
X11180Y4180
X12180Y4180
X13180Y4180
X14180Y4180
X15180Y4180
X16180Y4180
X17180Y4180
X18180Y4180
X19180Y4180
X20180Y4180
X21180Y4180
X22180Y4180
X23180Y4180
X24180Y4180
X25180Y4180
X26180Y4180
X27180Y4180
X28180Y4180
X29180Y4180
X29180Y3180
X28180Y3180
X27180Y3180
X26180Y3180
X25180Y3180
X24180Y3180
X23180Y3180
X22180Y3180
X21180Y3180
X20180Y3180
X19180Y3180
X18180Y3180
X17180Y3180
X16180Y3180
X15180Y3180
X14180Y3180
X13180Y3180
X12180Y3180
X11180Y3180
X10180Y3180
M30
