G75*
%MOIN*%
%OFA0B0*%
%FSLAX25Y25*%
%IPPOS*%
%LPD*%
%AMOC8*
5,1,8,0,0,1.08239X$1,22.5*
%
%ADD10C,0.00800*%
%ADD11C,0.00600*%
%ADD12C,0.00500*%
D10*
X0009713Y0006328D02*
X0009713Y0147272D01*
X0323887Y0147272D01*
X0323887Y0006328D01*
X0009713Y0006328D01*
X0022115Y0027194D02*
X0022115Y0124044D01*
X0311485Y0124044D01*
X0311485Y0027194D01*
X0022115Y0027194D01*
X0040225Y0048847D02*
X0040225Y0102391D01*
X0293375Y0102391D01*
X0293375Y0048847D01*
X0040225Y0048847D01*
X0289300Y0047725D02*
X0294300Y0047725D01*
D11*
X0044800Y0049300D02*
X0043800Y0048300D01*
X0039300Y0045800D02*
X0036800Y0048300D01*
X0034300Y0045800D01*
X0035300Y0045800D01*
X0035300Y0044800D01*
X0033800Y0043300D01*
X0030800Y0043300D01*
X0030800Y0040300D01*
X0033800Y0040300D01*
X0035300Y0038800D01*
X0035300Y0035800D01*
X0038300Y0035800D01*
X0038300Y0038800D01*
X0039800Y0040300D01*
X0042800Y0040300D01*
X0042800Y0043300D01*
X0039800Y0043300D01*
X0038300Y0044800D01*
X0038300Y0045800D01*
X0039300Y0045800D01*
X0029300Y0048300D02*
X0028300Y0049300D01*
X0036800Y0051500D02*
X0036800Y0053000D01*
X0029800Y0034800D02*
X0028800Y0033800D01*
X0043800Y0034800D02*
X0044800Y0033800D01*
D12*
X0031656Y0057550D02*
X0028654Y0057550D01*
X0030155Y0057550D02*
X0030155Y0062054D01*
X0028654Y0060553D01*
X0027053Y0061303D02*
X0027053Y0059802D01*
X0026302Y0059051D01*
X0024050Y0059051D01*
X0024050Y0057550D02*
X0024050Y0062054D01*
X0026302Y0062054D01*
X0027053Y0061303D01*
X0025551Y0059051D02*
X0027053Y0057550D01*
M02*
