G75*
%MOIN*%
%OFA0B0*%
%FSLAX25Y25*%
%IPPOS*%
%LPD*%
%AMOC8*
5,1,8,0,0,1.08239X$1,22.5*
%
%ADD10C,0.07200*%
%ADD11OC8,0.08000*%
%ADD12OC8,0.05400*%
D10*
X0040816Y0137824D03*
X0050816Y0137824D03*
X0060816Y0137824D03*
X0070816Y0137824D03*
X0080816Y0137824D03*
X0090816Y0137824D03*
X0100816Y0137824D03*
X0110816Y0137824D03*
X0120816Y0137824D03*
X0130816Y0137824D03*
X0140816Y0137824D03*
X0150816Y0137824D03*
X0160816Y0137824D03*
X0170816Y0137824D03*
X0180816Y0137824D03*
X0190816Y0137824D03*
D11*
X0191800Y0041800D03*
X0181800Y0041800D03*
X0171800Y0041800D03*
X0161800Y0041800D03*
X0151800Y0041800D03*
X0141800Y0041800D03*
X0131800Y0041800D03*
X0121800Y0041800D03*
X0111800Y0041800D03*
X0101800Y0041800D03*
X0101800Y0031800D03*
X0111800Y0031800D03*
X0121800Y0031800D03*
X0131800Y0031800D03*
X0141800Y0031800D03*
X0151800Y0031800D03*
X0161800Y0031800D03*
X0171800Y0031800D03*
X0181800Y0031800D03*
X0191800Y0031800D03*
X0201800Y0031800D03*
X0211800Y0031800D03*
X0221800Y0031800D03*
X0231800Y0031800D03*
X0241800Y0031800D03*
X0251800Y0031800D03*
X0261800Y0031800D03*
X0271800Y0031800D03*
X0281800Y0031800D03*
X0291800Y0031800D03*
X0291800Y0041800D03*
X0281800Y0041800D03*
X0271800Y0041800D03*
X0261800Y0041800D03*
X0251800Y0041800D03*
X0241800Y0041800D03*
X0231800Y0041800D03*
X0221800Y0041800D03*
X0211800Y0041800D03*
X0201800Y0041800D03*
D12*
X0036800Y0031800D03*
X0026900Y0041800D03*
X0046700Y0041800D03*
M02*
