G75*
%MOIN*%
%OFA0B0*%
%FSLAX25Y25*%
%IPPOS*%
%LPD*%
%AMOC8*
5,1,8,0,0,1.08239X$1,22.5*
%
%ADD10C,0.00600*%
%ADD11R,0.06500X0.00500*%
%ADD12R,0.10000X0.00500*%
%ADD13R,0.12000X0.00500*%
%ADD14R,0.14000X0.00500*%
%ADD15R,0.15000X0.00500*%
%ADD16R,0.16500X0.00500*%
%ADD17R,0.17500X0.00500*%
%ADD18R,0.18500X0.00500*%
%ADD19R,0.19000X0.00500*%
%ADD20R,0.08000X0.00500*%
%ADD21R,0.06000X0.00500*%
%ADD22R,0.04500X0.00500*%
%ADD23R,0.05500X0.00500*%
%ADD24R,0.05000X0.00500*%
%ADD25R,0.07000X0.00500*%
%ADD26R,0.04000X0.00500*%
%ADD27R,0.03500X0.00500*%
%ADD28R,0.03000X0.00500*%
%ADD29R,0.02500X0.00500*%
%ADD30R,0.16000X0.00500*%
%ADD31R,0.13000X0.00500*%
%ADD32R,0.02000X0.00500*%
%ADD33R,0.11000X0.00500*%
%ADD34R,0.01500X0.00500*%
%ADD35R,0.01000X0.00500*%
%ADD36R,0.09500X0.00500*%
%ADD37R,0.08500X0.00500*%
%ADD38R,0.27500X0.00500*%
%ADD39R,0.27000X0.00500*%
%ADD40R,0.26000X0.00500*%
%ADD41R,0.25500X0.00500*%
%ADD42R,0.25000X0.00500*%
%ADD43R,0.24000X0.00500*%
%ADD44R,0.23000X0.00500*%
%ADD45R,0.22000X0.00500*%
%ADD46R,0.21000X0.00500*%
%ADD47R,0.19500X0.00500*%
%ADD48R,0.18000X0.00500*%
%ADD49R,0.17000X0.00500*%
%ADD50R,0.13500X0.00500*%
%ADD51R,0.09000X0.00500*%
D10*
X0194791Y0112100D02*
X0194791Y0115303D01*
X0192656Y0117438D01*
X0192656Y0118505D01*
X0194791Y0115303D02*
X0196927Y0117438D01*
X0196927Y0118505D01*
X0199102Y0116370D02*
X0201237Y0118505D01*
X0203372Y0116370D01*
X0203372Y0112100D01*
X0205547Y0112100D02*
X0209818Y0112100D01*
X0209818Y0118505D01*
X0211993Y0117438D02*
X0211993Y0115303D01*
X0213060Y0114235D01*
X0216263Y0114235D01*
X0218438Y0114235D02*
X0220573Y0112100D01*
X0221641Y0112100D01*
X0222709Y0113168D01*
X0222709Y0114235D01*
X0220573Y0116370D01*
X0220573Y0117438D01*
X0221641Y0118505D01*
X0222709Y0117438D01*
X0222709Y0116370D01*
X0218438Y0112100D01*
X0216263Y0112100D02*
X0216263Y0118505D01*
X0213060Y0118505D01*
X0211993Y0117438D01*
X0203372Y0115303D02*
X0199102Y0115303D01*
X0199102Y0116370D02*
X0199102Y0112100D01*
X0224884Y0113168D02*
X0225951Y0112100D01*
X0228086Y0112100D01*
X0229154Y0113168D01*
X0229154Y0117438D01*
X0228086Y0118505D01*
X0225951Y0118505D01*
X0224884Y0117438D01*
X0224884Y0115303D02*
X0227019Y0115303D01*
X0224884Y0115303D02*
X0224884Y0113168D01*
X0231329Y0113168D02*
X0232397Y0112100D01*
X0234532Y0112100D01*
X0235600Y0113168D01*
X0235600Y0118505D01*
X0231329Y0118505D02*
X0231329Y0113168D01*
X0237775Y0112100D02*
X0242045Y0112100D01*
X0242045Y0118505D01*
X0244220Y0117438D02*
X0244220Y0115303D01*
X0245288Y0114235D01*
X0248491Y0114235D01*
X0248491Y0112100D02*
X0248491Y0118505D01*
X0245288Y0118505D01*
X0244220Y0117438D01*
X0257111Y0117438D02*
X0257111Y0113168D01*
X0258179Y0112100D01*
X0261382Y0112100D01*
X0261382Y0118505D01*
X0258179Y0118505D01*
X0257111Y0117438D01*
X0263557Y0117438D02*
X0264624Y0118505D01*
X0266759Y0118505D01*
X0267827Y0117438D01*
X0267827Y0113168D01*
X0266759Y0112100D01*
X0264624Y0112100D01*
X0263557Y0113168D01*
X0270002Y0112100D02*
X0274273Y0112100D01*
X0274273Y0118505D01*
X0282893Y0117438D02*
X0282893Y0116370D01*
X0287164Y0112100D01*
X0282893Y0112100D01*
X0289339Y0112100D02*
X0293609Y0116370D01*
X0295784Y0114235D02*
X0296852Y0115303D01*
X0300055Y0115303D01*
X0300055Y0113168D01*
X0298987Y0112100D01*
X0296852Y0112100D01*
X0295784Y0113168D01*
X0295784Y0114235D01*
X0297919Y0117438D02*
X0300055Y0115303D01*
X0297919Y0117438D02*
X0295784Y0118505D01*
X0293609Y0112100D02*
X0289339Y0116370D01*
X0287164Y0117438D02*
X0286096Y0118505D01*
X0283961Y0118505D01*
X0282893Y0117438D01*
X0302230Y0112100D02*
X0306500Y0112100D01*
X0304365Y0112100D02*
X0304365Y0118505D01*
X0306500Y0116370D01*
D11*
X0178800Y0096300D03*
X0157300Y0096300D03*
X0160800Y0060800D03*
X0167800Y0055800D03*
X0175300Y0060800D03*
D12*
X0168050Y0056300D03*
D13*
X0168050Y0056800D03*
D14*
X0168050Y0057300D03*
D15*
X0168050Y0057800D03*
X0168050Y0068300D03*
X0168050Y0102800D03*
D16*
X0167800Y0067300D03*
X0167800Y0058300D03*
D17*
X0167800Y0058800D03*
D18*
X0167800Y0059300D03*
D19*
X0168050Y0059800D03*
D20*
X0168050Y0062800D03*
X0168050Y0063300D03*
X0168050Y0063800D03*
X0162050Y0060300D03*
X0174050Y0060300D03*
X0168050Y0069800D03*
X0175050Y0085300D03*
D21*
X0160550Y0085800D03*
X0168050Y0096300D03*
X0168050Y0061800D03*
X0160050Y0061300D03*
D22*
X0167800Y0061300D03*
X0176800Y0062300D03*
X0177300Y0062800D03*
X0177800Y0063300D03*
X0163300Y0084300D03*
X0155800Y0095300D03*
X0180300Y0095300D03*
D23*
X0175300Y0085800D03*
X0156300Y0095800D03*
X0175800Y0061300D03*
D24*
X0176550Y0061800D03*
X0159550Y0061800D03*
X0159050Y0062300D03*
X0179550Y0095800D03*
X0168050Y0104800D03*
D25*
X0168050Y0062300D03*
D26*
X0158550Y0062800D03*
X0158050Y0063300D03*
X0157550Y0064300D03*
X0178050Y0063800D03*
X0172550Y0084300D03*
X0181050Y0094300D03*
X0180550Y0094800D03*
X0155050Y0094800D03*
D27*
X0154800Y0094300D03*
X0154800Y0093800D03*
X0154300Y0093300D03*
X0157300Y0084300D03*
X0181300Y0093800D03*
X0181800Y0092800D03*
X0161300Y0066800D03*
X0157300Y0064800D03*
X0156800Y0065300D03*
X0157800Y0063800D03*
X0178300Y0064300D03*
X0178800Y0064800D03*
X0179300Y0065800D03*
D28*
X0156050Y0066800D03*
X0156050Y0067300D03*
X0156550Y0066300D03*
X0156550Y0065800D03*
X0155550Y0068300D03*
X0174550Y0066800D03*
X0179050Y0065300D03*
X0179550Y0066300D03*
X0180050Y0067300D03*
X0178550Y0084300D03*
X0182050Y0091800D03*
X0182050Y0092300D03*
X0181550Y0093300D03*
X0154050Y0092800D03*
X0154050Y0092300D03*
X0153550Y0090800D03*
X0153550Y0090300D03*
X0153550Y0089800D03*
X0153550Y0089300D03*
X0153550Y0088800D03*
D29*
X0153800Y0088300D03*
X0153800Y0087800D03*
X0153800Y0087300D03*
X0153800Y0086800D03*
X0153800Y0086300D03*
X0153800Y0085800D03*
X0153800Y0085300D03*
X0153800Y0084800D03*
X0153800Y0084300D03*
X0164300Y0083800D03*
X0171800Y0083800D03*
X0182300Y0085800D03*
X0182300Y0086300D03*
X0182300Y0086800D03*
X0182300Y0087300D03*
X0182300Y0087800D03*
X0182300Y0088300D03*
X0182300Y0088800D03*
X0182300Y0089300D03*
X0182300Y0089800D03*
X0182300Y0090300D03*
X0182300Y0090800D03*
X0182300Y0091300D03*
X0153800Y0091300D03*
X0153800Y0091800D03*
X0155300Y0069300D03*
X0155300Y0068800D03*
X0155800Y0067800D03*
X0179800Y0066800D03*
X0180300Y0067800D03*
X0180300Y0068300D03*
X0180800Y0069300D03*
X0180800Y0069800D03*
D30*
X0168050Y0067800D03*
D31*
X0168050Y0068800D03*
D32*
X0180550Y0068800D03*
X0181050Y0070300D03*
X0181050Y0070800D03*
X0181550Y0071300D03*
X0181550Y0071800D03*
X0181550Y0072300D03*
X0182050Y0081300D03*
X0182050Y0081800D03*
X0182050Y0082300D03*
X0182050Y0082800D03*
X0182050Y0083300D03*
X0182050Y0083800D03*
X0182050Y0084300D03*
X0182050Y0084800D03*
X0182050Y0085300D03*
X0179550Y0083800D03*
X0156550Y0083800D03*
X0154050Y0083800D03*
X0154050Y0083300D03*
X0154050Y0082800D03*
X0154050Y0082300D03*
X0154050Y0081800D03*
X0154050Y0081300D03*
X0154050Y0080800D03*
X0154050Y0080300D03*
X0154550Y0071800D03*
X0154550Y0071300D03*
X0154550Y0070800D03*
X0155050Y0070300D03*
X0155050Y0069800D03*
D33*
X0168050Y0069300D03*
X0168050Y0103800D03*
D34*
X0179800Y0083300D03*
X0181800Y0080800D03*
X0181800Y0080300D03*
X0181800Y0079800D03*
X0181800Y0079300D03*
X0181800Y0078800D03*
X0182300Y0077800D03*
X0182300Y0077300D03*
X0182300Y0076800D03*
X0182300Y0076300D03*
X0182300Y0075800D03*
X0182300Y0075300D03*
X0181800Y0074300D03*
X0181800Y0073800D03*
X0181800Y0073300D03*
X0181800Y0072800D03*
X0154300Y0072800D03*
X0154300Y0073300D03*
X0153800Y0073800D03*
X0153800Y0074300D03*
X0153800Y0074800D03*
X0153800Y0075300D03*
X0153800Y0075800D03*
X0153800Y0076800D03*
X0153800Y0077300D03*
X0153800Y0077800D03*
X0153800Y0078300D03*
X0153800Y0078800D03*
X0153800Y0079300D03*
X0153800Y0079800D03*
X0154300Y0072300D03*
D35*
X0153550Y0076300D03*
X0156050Y0083300D03*
X0182050Y0078300D03*
X0182050Y0074800D03*
D36*
X0175300Y0084800D03*
X0160800Y0084800D03*
D37*
X0160800Y0085300D03*
D38*
X0167800Y0096800D03*
D39*
X0168050Y0097300D03*
D40*
X0168050Y0097800D03*
D41*
X0167800Y0098300D03*
D42*
X0168050Y0098800D03*
D43*
X0168050Y0099300D03*
D44*
X0168050Y0099800D03*
D45*
X0168050Y0100300D03*
D46*
X0168050Y0100800D03*
D47*
X0167800Y0101300D03*
D48*
X0168050Y0101800D03*
D49*
X0168050Y0102300D03*
D50*
X0167800Y0103300D03*
D51*
X0168050Y0104300D03*
M02*
