G75*
%MOIN*%
%OFA0B0*%
%FSLAX25Y25*%
%IPPOS*%
%LPD*%
%AMOC8*
5,1,8,0,0,1.08239X$1,22.5*
%
%ADD10C,0.06600*%
%ADD11OC8,0.07400*%
%ADD12OC8,0.04800*%
%ADD13C,0.01000*%
D10*
X0040816Y0137824D03*
X0050816Y0137824D03*
X0060816Y0137824D03*
X0070816Y0137824D03*
X0080816Y0137824D03*
X0090816Y0137824D03*
X0100816Y0137824D03*
X0110816Y0137824D03*
X0120816Y0137824D03*
X0130816Y0137824D03*
X0140816Y0137824D03*
X0150816Y0137824D03*
X0160816Y0137824D03*
X0170816Y0137824D03*
X0180816Y0137824D03*
X0190816Y0137824D03*
D11*
X0191800Y0041800D03*
X0181800Y0041800D03*
X0171800Y0041800D03*
X0161800Y0041800D03*
X0151800Y0041800D03*
X0141800Y0041800D03*
X0131800Y0041800D03*
X0121800Y0041800D03*
X0111800Y0041800D03*
X0101800Y0041800D03*
X0101800Y0031800D03*
X0111800Y0031800D03*
X0121800Y0031800D03*
X0131800Y0031800D03*
X0141800Y0031800D03*
X0151800Y0031800D03*
X0161800Y0031800D03*
X0171800Y0031800D03*
X0181800Y0031800D03*
X0191800Y0031800D03*
X0201800Y0031800D03*
X0211800Y0031800D03*
X0221800Y0031800D03*
X0231800Y0031800D03*
X0241800Y0031800D03*
X0251800Y0031800D03*
X0261800Y0031800D03*
X0271800Y0031800D03*
X0281800Y0031800D03*
X0291800Y0031800D03*
X0291800Y0041800D03*
X0281800Y0041800D03*
X0271800Y0041800D03*
X0261800Y0041800D03*
X0251800Y0041800D03*
X0241800Y0041800D03*
X0231800Y0041800D03*
X0221800Y0041800D03*
X0211800Y0041800D03*
X0201800Y0041800D03*
D12*
X0036800Y0031800D03*
X0026900Y0041800D03*
X0046700Y0041800D03*
D13*
X0071400Y0043500D02*
X0095700Y0019200D01*
X0228900Y0019200D01*
X0241500Y0031800D01*
X0241800Y0031800D01*
X0221800Y0031800D02*
X0221700Y0031800D01*
X0210900Y0021000D01*
X0096600Y0021000D01*
X0089400Y0028200D01*
X0089400Y0048000D01*
X0090300Y0048900D01*
X0090300Y0137100D01*
X0090816Y0137824D01*
X0071400Y0137100D02*
X0070816Y0137824D01*
X0071400Y0137100D02*
X0071400Y0043500D01*
X0091200Y0047100D02*
X0091200Y0029100D01*
X0097500Y0022800D01*
X0115500Y0022800D01*
X0119100Y0026400D01*
X0136200Y0026400D01*
X0141600Y0031800D01*
X0141800Y0031800D01*
X0121800Y0031800D02*
X0114600Y0024600D01*
X0098400Y0024600D01*
X0093000Y0030000D01*
X0093000Y0046200D01*
X0150600Y0103800D01*
X0150600Y0137100D01*
X0150816Y0137824D01*
X0160500Y0137100D02*
X0160816Y0137824D01*
X0160500Y0137100D02*
X0160500Y0109200D01*
X0100200Y0048900D01*
X0098400Y0048900D01*
X0094800Y0045300D01*
X0094800Y0030900D01*
X0099300Y0026400D01*
X0105600Y0026400D01*
X0111000Y0031800D01*
X0111800Y0031800D01*
X0101800Y0031800D02*
X0101100Y0031800D01*
X0096600Y0036300D01*
X0096600Y0044400D01*
X0099300Y0047100D01*
X0101100Y0047100D01*
X0170400Y0116400D01*
X0170400Y0137100D01*
X0170816Y0137824D01*
X0173100Y0142500D02*
X0177600Y0138000D01*
X0180300Y0138000D01*
X0180816Y0137824D01*
X0181200Y0137100D01*
X0185700Y0132600D01*
X0208200Y0132600D01*
X0297300Y0043500D01*
X0297300Y0039900D01*
X0291900Y0034500D01*
X0291900Y0031800D01*
X0291800Y0031800D01*
X0140700Y0096600D02*
X0091200Y0047100D01*
X0140700Y0096600D02*
X0140700Y0137100D01*
X0140816Y0137824D01*
X0173100Y0142500D02*
X0056100Y0142500D01*
X0051600Y0138000D01*
X0050816Y0137824D01*
M02*
